<?xml version="1.0" encoding="UTF-8"?>
<!DOCTYPE svg PUBLIC "-//W3C//DTD SVG 1.1//EN" "http://www.w3.org/Graphics/SVG/1.1/DTD/svg11.dtd">
<!-- Creator: CorelDRAW -->
<svg xmlns="http://www.w3.org/2000/svg" xml:space="preserve" width="1in" height="1in" version="1.1" style="shape-rendering:geometricPrecision; text-rendering:geometricPrecision; image-rendering:optimizeQuality; fill-rule:evenodd; clip-rule:evenodd"
viewBox="0 0 1767 1767"
 xmlns:xlink="http://www.w3.org/1999/xlink">
 <defs>
  <style type="text/css">
   <![CDATA[
    .fil0 {fill:rgb(218, 221, 216)}
   ]]>
  </style>
 </defs>
 <g id="Layer_x0020_1">
  <metadata id="CorelCorpID_0Corel-Layer"/>
  <path class="fil0" d="M1374 1168l-88 -88c-35,-35 19,-89 54,-54l61 61 122 -121c36,-36 90,18 54,54l-149 148c-15,15 -39,15 -54,0zm20 201c-151,-18 -267,-147 -267,-302 0,-155 116,-284 267,-303l0 -111 -1288 0 0 832c0,68 56,123 124,123l1040 0c68,0 124,-55 124,-123l0 -116zm76 -605c150,19 267,148 267,303 0,155 -117,284 -267,302l0 116c0,110 -90,200 -200,200l-1040 0c-110,0 -200,-90 -200,-200l0 -1040c0,-111 90,-200 200,-200l92 0 0 -57c0,-59 47,-106 106,-106 58,0 105,47 105,106l0 57 433 0 0 -57c0,-59 48,-106 106,-106 59,0 106,47 106,106l0 57 92 0c110,0 200,89 200,200l0 319zm-38 74c-126,0 -229,103 -229,229 0,126 103,228 229,228 126,0 228,-102 228,-228 0,-126 -102,-229 -228,-229zm-1034 -556l0 97c0,38 59,38 59,0l0 -191c0,-39 -59,-39 -59,0l0 94zm-76 39l-92 0c-68,0 -124,56 -124,124l0 132 1288 0 0 -132c0,-68 -56,-124 -124,-124l-92 0 0 58c0,58 -47,105 -106,105 -58,0 -106,-47 -106,-105l0 -58 -433 0 0 58c0,58 -47,105 -105,105 -59,0 -106,-47 -106,-105l0 -58zm721 -39l0 97c0,38 59,38 59,0l0 -191c0,-39 -59,-39 -59,0l0 94zm-364 664l-162 0c-21,0 -38,-18 -38,-39l0 -161c0,-21 17,-38 38,-38l162 0c21,0 38,17 38,38l0 161c0,21 -17,39 -38,39zm-124 -77l86 0 0 -85 -86 0 0 85zm428 77l-162 0c-21,0 -38,-18 -38,-39l0 -161c0,-21 17,-38 38,-38l162 0c21,0 38,17 38,38l0 161c0,21 -17,39 -38,39zm-124 -77l85 0 0 -85 -85 0 0 85zm-484 381l-162 0c-21,0 -38,-17 -38,-38l0 -162c0,-21 17,-38 38,-38l162 0c21,0 38,17 38,38l0 162c0,21 -17,38 -38,38zm-123 -76l85 0 0 -86 -85 0 0 86zm427 76l-162 0c-21,0 -38,-17 -38,-38l0 -162c0,-21 17,-38 38,-38l162 0c21,0 38,17 38,38l0 162c0,21 -17,38 -38,38zm-124 -76l86 0 0 -86 -86 0 0 86zm428 76l-162 0c-21,0 -38,-17 -38,-38l0 -162c0,-21 17,-38 38,-38l162 0c21,0 38,17 38,38l0 162c0,21 -17,38 -38,38zm-124 -76l85 0 0 -86 -85 0 0 86zm-484 380l-162 0c-21,0 -38,-17 -38,-38l0 -161c0,-22 17,-39 38,-39l162 0c21,0 38,17 38,39l0 161c0,21 -17,38 -38,38zm-123 -76l85 0 0 -85 -85 0 0 85zm427 76l-162 0c-21,0 -38,-17 -38,-38l0 -161c0,-22 17,-39 38,-39l162 0c21,0 38,17 38,39l0 161c0,21 -17,38 -38,38zm-124 -76l86 0 0 -85 -86 0 0 85zm428 76l-162 0c-21,0 -38,-17 -38,-38l0 -161c0,-22 17,-39 38,-39l162 0c21,0 38,17 38,39l0 161c0,21 -17,38 -38,38zm-124 -76l85 0 0 -85 -85 0 0 85z"/>
 </g>
</svg>
